HIERARCHY
ROOT root
{
  OFFSET 0 87.9003 0
  CHANNELS 6 Xposition Yposition Zposition Zrotation Xrotation Yrotation
  JOINT torso_1
  {
    OFFSET 0 4.78511 -1.08482
    CHANNELS 6 Xposition Yposition Zposition Zrotation Xrotation Yrotation
    JOINT torso_2
    {
      OFFSET 0 5.29195 1.00949
      CHANNELS 6 Xposition Yposition Zposition Zrotation Xrotation Yrotation
      JOINT torso_3
      {
        OFFSET -9.66735e-18 5.64355 0.108362
        CHANNELS 6 Xposition Yposition Zposition Zrotation Xrotation Yrotation
        JOINT torso_4
        {
          OFFSET -1.04072e-17 6.12977 -0.417886
          CHANNELS 6 Xposition Yposition Zposition Zrotation Xrotation Yrotation
          JOINT torso_5
          {
            OFFSET -1.85891e-17 7.16586 -1.41888
            CHANNELS 6 Xposition Yposition Zposition Zrotation Xrotation Yrotation
            JOINT torso_6
            {
              OFFSET -2.38665e-17 8.94839 -0.861631
              CHANNELS 6 Xposition Yposition Zposition Zrotation Xrotation Yrotation
              JOINT torso_7
              {
                OFFSET -2.73615e-17 9.94144 1.48576
                CHANNELS 6 Xposition Yposition Zposition Zrotation Xrotation Yrotation
                JOINT neck_1
                {
                  OFFSET -1.21725e-17 4.50977 0.67399
                  CHANNELS 6 Xposition Yposition Zposition Zrotation Xrotation Yrotation
                  JOINT neck_2
                  {
                    OFFSET -1.70689e-17 4.54241 0.39741
                    CHANNELS 6 Xposition Yposition Zposition Zrotation Xrotation Yrotation
                    JOINT head
                    {
                      OFFSET -1.89342e-17 4.5512 0.720839
                      CHANNELS 6 Xposition Yposition Zposition Zrotation Xrotation Yrotation
                      End Site
                      {
                        OFFSET 0 0.1 0
                      }
                    }
                  }
                }
                JOINT l_shoulder
                {
                  OFFSET 1.16172 -7.16758 7.09827
                  CHANNELS 6 Xposition Yposition Zposition Zrotation Xrotation Yrotation
                  JOINT l_up_arm
                  {
                    OFFSET 12.2059 3.06167 -3.07978
                    CHANNELS 6 Xposition Yposition Zposition Zrotation Xrotation Yrotation
                    JOINT l_low_arm
                    {
                      OFFSET 27.5197 0.056351 0.129118
                      CHANNELS 6 Xposition Yposition Zposition Zrotation Xrotation Yrotation
                      JOINT l_hand
                      {
                        OFFSET 22.8331 0.0467536 0.107129
                        CHANNELS 6 Xposition Yposition Zposition Zrotation Xrotation Yrotation
                        End Site
                        {
                          OFFSET 0.1 0 0
                        }
                      }
                    }
                  }
                }
                JOINT r_shoulder
                {
                  OFFSET -1.16172 -7.16756 7.09818
                  CHANNELS 6 Xposition Yposition Zposition Zrotation Xrotation Yrotation
                  JOINT r_up_arm
                  {
                    OFFSET -12.2059 3.06167 -3.07978
                    CHANNELS 6 Xposition Yposition Zposition Zrotation Xrotation Yrotation
                    JOINT r_low_arm
                    {
                      OFFSET -27.5197 0.056351 0.129118
                      CHANNELS 6 Xposition Yposition Zposition Zrotation Xrotation Yrotation
                      JOINT r_hand
                      {
                        OFFSET -22.8331 0.0467534 0.107129
                        CHANNELS 6 Xposition Yposition Zposition Zrotation Xrotation Yrotation
                        End Site
                        {
                          OFFSET -0.1 0 0
                        }
                      }
                    }
                  }
                }
              }
            }
          }
        }
      }
    }
  }
  JOINT l_up_leg
  {
    OFFSET 8.70282 -3.96247 1.9152
    CHANNELS 6 Xposition Yposition Zposition Zrotation Xrotation Yrotation
    JOINT l_low_leg
    {
      OFFSET -0.803084 -36.5309 -0.617314
      CHANNELS 6 Xposition Yposition Zposition Zrotation Xrotation Yrotation
      JOINT l_foot
      {
        OFFSET -2.19176 -38.0664 -5.69911
        CHANNELS 6 Xposition Yposition Zposition Zrotation Xrotation Yrotation
        JOINT l_toes
        {
          OFFSET 0.734061 -9.31305 11.7736
          CHANNELS 6 Xposition Yposition Zposition Zrotation Xrotation Yrotation
          End Site
          {
            OFFSET 0 0 0.1
          }
        }
      }
    }
  }
  JOINT r_up_leg
  {
    OFFSET -8.70282 -3.96247 1.9152
    CHANNELS 6 Xposition Yposition Zposition Zrotation Xrotation Yrotation
    JOINT r_low_leg
    {
      OFFSET 0.803084 -36.5309 -0.617314
      CHANNELS 6 Xposition Yposition Zposition Zrotation Xrotation Yrotation
      JOINT r_foot
      {
        OFFSET 2.19176 -38.0664 -5.69911
        CHANNELS 6 Xposition Yposition Zposition Zrotation Xrotation Yrotation
        JOINT r_toes
        {
          OFFSET -0.734061 -9.31305 11.7736
          CHANNELS 6 Xposition Yposition Zposition Zrotation Xrotation Yrotation
          End Site
          {
            OFFSET 0 0 0.1
          }
        }
      }
    }
  }
}
MOTION
Frames: 5
Frame Time: 0.016667
0 87.9003 0 -0 0 -0 0 4.78511 -1.08482 -0 0 -0 0 5.29195 1.00949 -0 0 -0 -9.66735e-18 5.64355 0.108362 -0 0 -0 -1.04072e-17 6.12977 -0.417886 -0 0 -0 -1.85891e-17 7.16586 -1.41888 -0 0 -0 -2.38665e-17 8.94839 -0.861631 -0 0 -0 -2.73615e-17 9.94144 1.48576 -0 0 -0 -1.21725e-17 4.50977 0.67399 -0 0 -0 -1.70689e-17 4.54241 0.39741 -0 0 -0 -1.89342e-17 4.5512 0.720839 -0 0 -0 1.16172 -7.16758 7.09827 -0 0 -0 12.2059 3.06167 -3.07978 -0 0 -0 27.5197 0.056351 0.129118 -0 0 -0 22.8331 0.0467536 0.107129 -0 0 -0 -1.16172 -7.16756 7.09818 -0 0 -0 -12.2059 3.06167 -3.07978 -0 0 -0 -27.5197 0.056351 0.129118 -0 0 -0 -22.8331 0.0467534 0.107129 -0 0 -0 8.70282 -3.96247 1.9152 -0 0 -0 -0.803084 -36.5309 -0.617314 -0 0 -0 -2.19176 -38.0664 -5.69911 -0 0 -0 0.734061 -9.31305 11.7736 -0 0 -0 -8.70282 -3.96247 1.9152 -0 0 -0 0.803084 -36.5309 -0.617314 -0 0 -0 2.19176 -38.0664 -5.69911 -0 0 -0 -0.734061 -9.31305 11.7736 -0 0 -0 
-1.46266 88.6195 4.82666 -0.346812 15.393 -9.35521 0 4.78511 -1.08482 0.0919606 -4.21222 -0.311689 0 5.29195 1.00949 0.345639 -3.46124 -0.341816 -9.66735e-18 5.64355 0.108362 0.372786 -2.665 -0.200519 -1.04072e-17 6.12977 -0.417886 0.442658 -1.70536 -0.186624 -1.85891e-17 7.16586 -1.41888 0.404815 -0.683553 -0.244315 -2.38665e-17 8.94839 -0.861631 0.349824 -1.24247 -0.553878 -2.73615e-17 9.94144 1.48576 -0.0308794 0.946089 -0.0171581 -1.21725e-17 4.50977 0.67399 -1.34435 -9.64894 -6.96257 -1.70689e-17 4.54241 0.39741 0.270736 -3.39801 -3.24377 -1.89342e-17 4.5512 0.720839 -0.36739 -0.153492 -0.590813 1.16172 -7.16758 7.09827 2.08968 4.32972 -0.550151 12.2059 3.06167 -3.07978 -86.3381 21.6137 1.94315 27.5197 0.056351 0.129118 2.01275 -0.161119 -9.744 22.8331 0.0467536 0.107129 -1.34072 -22.4845 -3.03395 -1.16172 -7.16756 7.09818 -0.802343 5.50771 0.762324 -12.2059 3.06167 -3.07978 81.5332 26.4956 2.243 -27.5197 0.056351 0.129118 -2.6032 -0.274628 12.6393 -22.8331 0.0467534 0.107129 4.77094 -22.7792 2.34983 8.70282 -3.96247 1.9152 4.56721 -19.5637 -17.939 -0.803084 -36.5309 -0.617314 -0.601154 2.24508 -0.0274111 -2.19176 -38.0664 -5.69911 -1.55091 0.419052 15.2623 0.734061 -9.31305 11.7736 -2.73251e-16 -6.8469e-16 -1.7382e-16 -8.70282 -3.96247 1.9152 -0.165308 -18.3512 17.5157 0.803084 -36.5309 -0.617314 -0.145213 -0.541666 -0.010141 2.19176 -38.0664 -5.69911 3.1561 5.08242 -15.3127 -0.734061 -9.31305 11.7736 -1.85692e-16 -4.03789e-16 -1.25927e-14 
-1.46275 88.6209 4.82703 -0.348152 15.3766 -9.35552 0 4.78511 -1.08482 0.0896411 -4.20852 -0.311848 0 5.29195 1.00949 0.343489 -3.45835 -0.342162 -9.66735e-18 5.64355 0.108362 0.371061 -2.66365 -0.200866 -1.04072e-17 6.12977 -0.417886 0.441313 -1.70662 -0.186992 -1.85891e-17 7.16586 -1.41888 0.40392 -0.686648 -0.244539 -2.38665e-17 8.94839 -0.861631 0.349299 -1.2468 -0.553977 -2.73615e-17 9.94144 1.48576 -0.0310254 0.946408 -0.0171218 -1.21725e-17 4.50977 0.67399 -1.34501 -9.64501 -6.96461 -1.70689e-17 4.54241 0.39741 0.268002 -3.40296 -3.2448 -1.89342e-17 4.5512 0.720839 -0.371287 -0.158521 -0.595631 1.16172 -7.16758 7.09827 2.09553 4.33194 -0.553244 12.2059 3.06167 -3.07978 -86.3327 21.6154 1.93577 27.5197 0.056351 0.129118 2.0117 -0.160944 -9.73886 22.8331 0.0467536 0.107129 -1.34376 -22.5029 -3.02974 -1.16172 -7.16756 7.09818 -0.802514 5.51064 0.765346 -12.2059 3.06167 -3.07978 81.5354 26.5018 2.24136 -27.5197 0.056351 0.129118 -2.60082 -0.274107 12.6276 -22.8331 0.0467534 0.107129 4.77807 -22.7857 2.35414 8.70282 -3.96247 1.9152 4.5661 -19.5461 -17.9432 -0.803084 -36.5309 -0.617314 -0.601397 2.24598 -0.0274174 -2.19176 -38.0664 -5.69911 -1.55406 0.424688 15.2629 0.734061 -9.31305 11.7736 5.80563e-17 -6.70376e-16 -1.94527e-16 -8.70282 -3.96247 1.9152 -0.166601 -18.3368 17.5167 0.803084 -36.5309 -0.617314 -0.14467 -0.539641 -0.0101006 2.19176 -38.0664 -5.69911 3.1568 5.08853 -15.3124 -0.734061 -9.31305 11.7736 4.76924e-16 -4.32417e-16 -1.26237e-14 
-1.46266 88.6218 4.82723 -0.342039 15.3664 -9.35618 0 4.78511 -1.08482 0.0861021 -4.20738 -0.311958 0 5.29195 1.00949 0.340148 -3.45746 -0.342665 -9.66735e-18 5.64355 0.108362 0.368304 -2.66349 -0.201418 -1.04072e-17 6.12977 -0.417886 0.439053 -1.70765 -0.1876 -1.85891e-17 7.16586 -1.41888 0.402302 -0.688463 -0.244845 -2.38665e-17 8.94839 -0.861631 0.348177 -1.24932 -0.554012 -2.73615e-17 9.94144 1.48576 -0.0311734 0.946572 -0.0172455 -1.21725e-17 4.50977 0.67399 -1.34612 -9.64236 -6.96522 -1.70689e-17 4.54241 0.39741 0.261906 -3.40471 -3.2453 -1.89342e-17 4.5512 0.720839 -0.379003 -0.164961 -0.598173 1.16172 -7.16758 7.09827 2.10155 4.33374 -0.555553 12.2059 3.06167 -3.07978 -86.3265 21.6225 1.93012 27.5197 0.056351 0.129118 2.01051 -0.160746 -9.73305 22.8331 0.0467536 0.107129 -1.35199 -22.5185 -3.0339 -1.16172 -7.16756 7.09818 -0.804577 5.51222 0.766781 -12.2059 3.06167 -3.07978 81.5392 26.522 2.23759 -27.5197 0.056351 0.129118 -2.5995 -0.273818 12.6211 -22.8331 0.0467534 0.107129 4.78541 -22.7931 2.36633 8.70282 -3.96247 1.9152 4.55939 -19.5325 -17.9489 -0.803084 -36.5309 -0.617314 -0.599925 2.24048 -0.027379 -2.19176 -38.0664 -5.69911 -1.56082 0.432328 15.2629 0.734061 -9.31305 11.7736 -1.57591e-16 -6.79693e-16 -1.81049e-16 -8.70282 -3.96247 1.9152 -0.17412 -18.3273 17.5199 0.803084 -36.5309 -0.617314 -0.144985 -0.540815 -0.010124 2.19176 -38.0664 -5.69911 3.15359 5.08918 -15.3125 -0.734061 -9.31305 11.7736 4.56288e-17 -4.13783e-16 -1.26035e-14 
-1.4626 88.6226 4.82741 -0.334349 15.3574 -9.3569 0 4.78511 -1.08482 0.0814401 -4.20663 -0.312486 0 5.29195 1.00949 0.335864 -3.45688 -0.343741 -9.66735e-18 5.64355 0.108362 0.364898 -2.66362 -0.20253 -1.04072e-17 6.12977 -0.417886 0.436446 -1.709 -0.188765 -1.85891e-17 7.16586 -1.41888 0.400543 -0.690303 -0.245617 -2.38665e-17 8.94839 -0.861631 0.346987 -1.25184 -0.554598 -2.73615e-17 9.94144 1.48576 -0.0313243 0.946732 -0.0173789 -1.21725e-17 4.50977 0.67399 -1.34775 -9.64089 -6.96726 -1.70689e-17 4.54241 0.39741 0.256042 -3.40569 -3.24649 -1.89342e-17 4.5512 0.720839 -0.384721 -0.16922 -0.59608 1.16172 -7.16758 7.09827 2.10785 4.33565 -0.556903 12.2059 3.06167 -3.07978 -86.3204 21.6322 1.92499 27.5197 0.056351 0.129118 2.00955 -0.160587 -9.72837 22.8331 0.0467536 0.107129 -1.36007 -22.5374 -3.03308 -1.16172 -7.16756 7.09818 -0.805666 5.51312 0.768854 -12.2059 3.06167 -3.07978 81.5463 26.5327 2.23145 -27.5197 0.056351 0.129118 -2.59962 -0.273846 12.6217 -22.8331 0.0467534 0.107129 4.78797 -22.7908 2.37015 8.70282 -3.96247 1.9152 4.55099 -19.5222 -17.9547 -0.803084 -36.5309 -0.617314 -0.599222 2.23786 -0.0273607 -2.19176 -38.0664 -5.69911 -1.56768 0.439846 15.2632 0.734061 -9.31305 11.7736 3.39965e-16 -6.58196e-16 -1.99195e-16 -8.70282 -3.96247 1.9152 -0.183661 -18.3191 17.5208 0.803084 -36.5309 -0.617314 -0.14537 -0.542249 -0.0101527 2.19176 -38.0664 -5.69911 3.15388 5.08766 -15.3129 -0.734061 -9.31305 11.7736 -4.09771e-16 -3.94108e-16 -1.25854e-14 
